# xmcd
#
# Track frame offsets:
# 150
# 16512
# 31181
# 51049
# 69847
# 90090
# 103890
# 120218
# 138684
# 156641
# 174560
# 193817
# 213526
# 234137
#
# Disc length: 3405 seconds
#
#
# Revision: 5
# Processed by: cddbd v1.5.1PL0 Copyright (c) Steve Scherf et al.
# Submitted via: FreeRIP 2.942 
#
DISCID=ae0d4b0e
DTITLE=Sugababes - Three
DYEAR=2003
DGENRE=Popular
TTITLE0=Hole In The Head
TTITLE1=Whatever Makes You Happy
TTITLE2=Caught In A Moment
TTITLE3=Situation's Heavy
TTITLE4=Million Different Ways
TTITLE5=Twisted
TTITLE6=We Could Have It All
TTITLE7=Conversation's Over
TTITLE8=In The Middle
TTITLE9=Too Lost In You
TTITLE10=Nasty Ghetto
TTITLE11=Buster
TTITLE12=Sometimes
TTITLE13=Maya
EXTD=
EXTT0=
EXTT1=
EXTT2=
EXTT3=
EXTT4=
EXTT5=
EXTT6=
EXTT7=
EXTT8=
EXTT9=
EXTT10=
EXTT11=
EXTT12=
EXTT13=
PLAYORDER=
